<?xml version="1.0" standalone="no"?>
<!DOCTYPE svg PUBLIC "-//W3C//DTD SVG 20010904//EN"
 "http://www.w3.org/TR/2001/REC-SVG-20010904/DTD/svg10.dtd">
<svg version="1.0" xmlns="http://www.w3.org/2000/svg"
 width="194.000000pt" height="259.000000pt" viewBox="0 0 194.000000 259.000000"
 preserveAspectRatio="xMidYMid meet">
<g transform="translate(0.000000,259.000000) scale(0.100000,-0.100000)"
fill="#000000" stroke="none">
<path d="M1008 1556 c-67 -18 -114 -53 -154 -116 -40 -63 -57 -117 -82 -256
l-18 -99 -206 -3 -206 -2 -33 27 c-25 20 -29 22 -15 5 19 -22 19 -22 -7 -22
-14 0 -29 -4 -32 -10 -4 -6 7 -10 26 -10 26 0 30 -3 21 -12 -21 -21 -13 -32 9
-12 19 17 39 19 229 19 l207 0 -1 -154 c-1 -109 2 -155 11 -158 8 -3 10 22 6
94 -6 105 16 330 42 442 49 205 198 308 358 247 105 -40 104 -167 -1 -212 -48
-20 -107 -12 -174 23 -72 38 -75 39 -59 19 41 -49 155 -81 226 -63 30 7 31 6
48 -40 23 -66 47 -236 47 -335 0 -90 7 -128 22 -128 11 0 3 158 -12 240 -5 25
-6 47 -4 49 6 7 385 71 418 71 17 0 40 -10 53 -22 13 -12 23 -17 23 -11 0 6
-7 16 -15 23 -13 11 -13 15 -3 21 10 7 10 9 -1 9 -11 0 -11 3 0 17 12 15 10
15 -16 -1 -26 -17 -171 -45 -416 -80 l-47 -7 -11 67 c-7 37 -20 84 -30 104
l-18 37 30 33 c26 30 29 38 25 86 -6 67 -33 99 -102 119 -59 18 -76 18 -138 1z"/>
<path d="M1118 1493 c-7 -25 1 -43 18 -43 11 0 14 8 12 27 -4 31 -23 42 -30
16z"/>
<path d="M1012 1463 c3 -30 23 -41 31 -18 9 21 -2 45 -20 45 -10 0 -13 -9 -11
-27z"/>
</g>
</svg>
